<svg width="512" height="512" viewBox="0 0 512 512" fill="none" xmlns="http://www.w3.org/2000/svg">
<path d="M192 240L160 256V96L224 64L320 96H400V240L336 256L256 240L240 224L224 240H192Z" fill="url(#paint0_linear)"/>
<path d="M407.989 72.656C406.328 72.6622 404.71 73.1746 403.349 74.1248C383.61 88.0221 360.138 95.6454 336 96C298.667 96 277.994 64 240 64C206.995 64 182.418 84.7264 160 92.8128V88C160 81.6349 157.471 75.5302 152.971 71.0294C148.47 66.5286 142.365 64 136 64C129.635 64 123.53 66.5286 119.029 71.0294C114.529 75.5302 112 81.6349 112 88V440C112 446.365 114.529 452.47 119.029 456.971C123.53 461.472 129.635 464 136 464C142.365 464 148.47 461.472 152.971 456.971C157.471 452.47 160 446.365 160 440V268.672C182.422 260.594 206.984 240 240 240C281 240 300 272 336 272C364.435 271.422 391.781 260.965 413.346 242.422C414.194 241.68 414.87 240.763 415.328 239.733C415.787 238.704 416.016 237.587 416 236.461V80.6208C416.003 79.5701 415.798 78.5291 415.395 77.5582C414.994 76.5874 414.403 75.7061 413.658 74.9653C412.912 74.2243 412.027 73.6387 411.054 73.2424C410.082 72.8459 409.04 72.6467 407.989 72.656ZM144 440C144 442.122 143.157 444.157 141.657 445.658C140.157 447.157 138.122 448 136 448C133.878 448 131.843 447.157 130.343 445.658C128.843 444.157 128 442.122 128 440V88C128 85.8782 128.843 83.8434 130.343 82.3432C131.843 80.8429 133.878 80 136 80C138.122 80 140.157 80.8429 141.657 82.3432C143.157 83.8434 144 85.8782 144 88V440ZM400 232.702C381.813 247.302 359.317 255.491 336 256C322.746 254.907 310.01 250.357 299.064 242.805C281.469 231.248 261.038 224.742 240 224C216.835 225.205 194.339 232.184 174.56 244.304C169.496 246.952 164.589 249.515 160 251.562V109.634C170.206 106.321 180.05 101.979 189.376 96.6736C204.632 87.0552 222.014 81.3298 240 80C254.586 81.0632 268.635 85.9365 280.746 94.1328C297.256 104.876 316.325 111.042 336 112C358.43 111.853 380.456 106 400 94.992V232.702Z" fill="#00C2FF" stroke="black" stroke-width="10"/>
<defs>
<linearGradient id="paint0_linear" x1="152" y1="160" x2="616" y2="160" gradientUnits="userSpaceOnUse">
<stop stop-color="#00C2FF"/>
<stop offset="1" stop-color="#00C2FF" stop-opacity="0"/>
</linearGradient>
</defs>
</svg>
