<svg width="48" height="48" viewBox="0 0 48 48" fill="none" xmlns="http://www.w3.org/2000/svg">
<rect x="32.42" y="33.1667" width="7.68061" height="2" transform="rotate(36.3503 32.42 33.1667)" fill="#00F4C8"/>
<rect x="11" y="31.7339" width="1.86665" height="2" transform="rotate(-23.1499 11 31.7339)" fill="#00F4C8"/>
<rect x="32" y="17.4936" width="6.27818" height="2" transform="rotate(-51.2653 32 17.4936)" fill="#00F4C8"/>
<rect x="17.2232" y="23.4794" width="12.2961" height="2" transform="rotate(-131.972 17.2232 23.4794)" fill="#00F4C8"/>
<path d="M24 20.3333C29.0626 20.3333 33.1667 24.4374 33.1667 29.5C33.1667 34.5626 29.0626 38.6667 24 38.6667C18.9374 38.6667 14.8333 34.5626 14.8333 29.5C14.8333 24.4374 18.9374 20.3333 24 20.3333Z" stroke="#49E9FF"/>
<path d="M6.58333 5.66667C9.11464 5.66667 11.1667 7.7187 11.1667 10.25C11.1667 12.7813 9.11464 14.8333 6.58333 14.8333C4.05203 14.8333 2 12.7813 2 10.25C2 7.7187 4.05203 5.66667 6.58333 5.66667Z" stroke="#49E9FF"/>
<path d="M41.4167 36.8333C43.948 36.8333 46 38.8854 46 41.4167C46 43.948 43.948 46 41.4167 46C38.8854 46 36.8333 43.948 36.8333 41.4167C36.8333 38.8854 38.8854 36.8333 41.4167 36.8333Z" stroke="#49E9FF"/>
<circle cx="41.4167" cy="6.58333" r="4.58333" fill="#49E9FF"/>
<circle cx="6.58333" cy="34.0833" r="4.58333" fill="#49E9FF"/>
</svg>
